<svg height="200" node-id="1" sillyvg="true" template-height="200" template-width="371" version="1.1" viewBox="0 0 371 200" width="371" xmlns="http://www.w3.org/2000/svg" xmlns:xlink="http://www.w3.org/1999/xlink"><defs node-id="42"><linearGradient gradientUnits="objectBoundingBox" id="路径_6_" node-id="9" spreadMethod="pad" x1="-642.3151" x2="-641.1562" y1="10.7256" y2="13.5852"><stop offset="0.5663" stop-color="#dee9e9"/><stop offset="0.9708" stop-color="#ffffff" stop-opacity="0"/></linearGradient><linearGradient gradientUnits="objectBoundingBox" id="路径_7_" node-id="13" spreadMethod="pad" x1="-639.6155" x2="-640.1552" y1="11.7182" y2="13.1109"><stop offset="0.6291" stop-color="#dee9e9"/><stop offset="1" stop-color="#ffffff" stop-opacity="0"/></linearGradient><linearGradient gradientUnits="objectBoundingBox" id="路径_8_" node-id="17" spreadMethod="pad" x1="-649.7397" x2="-649.7397" y1="13.6589" y2="16.8704"><stop offset="0.51" stop-color="#dde9e8"/><stop offset="1" stop-color="#ffffff" stop-opacity="0"/></linearGradient><linearGradient gradientUnits="objectBoundingBox" id="形状结合_2_" node-id="21" spreadMethod="pad" x1="-632.7993" x2="-633.4117" y1="13.7315" y2="15.7567"><stop offset="0.4963" stop-color="#dee9e9"/><stop offset="1" stop-color="#ffffff" stop-opacity="0"/></linearGradient></defs><g node-id="67"><g node-id="69"><g node-id="71"><g node-id="73"><g node-id="74"><path d="M 73.30 159.60 L 70.40 158.00 L 67.40 155.90 L 64.70 153.40 L 62.40 150.50 L 60.50 147.40 L 59.30 144.20 L 58.80 139.70 L 59.20 137.40 L 60.10 137.30 L 61.80 137.90 L 65.80 143.40 L 68.80 146.80 L 70.30 148.10 L 71.40 148.60 L 72.00 148.60 L 72.50 148.10 L 72.90 147.00 L 72.90 144.80 L 72.30 140.30 L 68.20 121.90 L 67.50 117.30 L 67.10 112.50 L 67.30 109.00 L 67.80 106.10 L 68.60 103.70 L 69.80 101.40 L 71.20 99.70 L 72.70 98.40 L 74.50 97.50 L 76.20 97.10 L 78.10 97.30 L 79.90 97.80 L 81.60 99.00 L 83.40 100.80 L 84.80 102.90 L 86.10 105.70 L 87.30 109.50 L 88.90 118.60 L 90.50 124.80 L 91.60 127.50 L 92.70 129.30 L 93.60 130.20 L 94.50 130.60 L 95.50 130.40 L 96.40 129.70 L 98.30 126.50 L 101.70 119.30 L 104.00 117.20 L 105.50 116.50 L 106.90 116.20 L 109.70 116.60 L 111.70 117.60 L 115.10 120.80 L 117.80 125.30 L 120.60 132.20 L 122.50 140.20 L 122.70 146.80 L 121.80 151.40 L 120.80 153.40 L 119.50 155.20 L 117.80 156.70 L 114.60 158.40 L 110.40 159.90 L 100.90 161.90 L 90.60 162.50 L 81.00 161.70 L 76.70 160.80 L 73.30 159.60 Z" fill="url(#路径_6_)" fill-rule="nonzero" group-id="1,3,5,7,8" id="路径" node-id="12" stroke="none" target-height="65.4" target-width="63.899998" target-x="58.8" target-y="97.1"/><path d="M 296.90 173.10 L 295.50 168.20 L 295.10 162.70 L 296.10 157.40 L 297.20 155.10 L 298.70 153.10 L 300.70 151.40 L 301.70 152.50 L 301.90 154.00 L 301.30 158.90 L 301.20 162.70 L 301.90 165.30 L 302.80 165.60 L 305.00 163.80 L 307.10 160.60 L 314.90 146.80 L 317.10 143.50 L 319.50 140.40 L 322.10 137.80 L 324.50 136.10 L 326.80 135.10 L 329.30 134.70 L 331.30 134.80 L 333.10 135.50 L 335.10 137.50 L 336.20 140.70 L 335.80 144.50 L 333.70 149.80 L 329.60 156.40 L 327.10 161.10 L 326.30 163.40 L 326.00 166.20 L 326.40 166.90 L 327.10 167.40 L 328.00 167.50 L 331.00 166.50 L 335.20 164.70 L 338.60 163.80 L 341.20 164.30 L 342.70 165.30 L 343.70 166.80 L 344.40 168.50 L 344.70 170.40 L 344.40 174.30 L 342.60 179.30 L 341.10 181.70 L 339.30 183.90 L 337.10 185.80 L 334.70 187.40 L 332.00 188.40 L 329.10 189.00 L 325.90 188.90 L 322.10 188.20 L 313.40 185.60 L 309.10 183.80 L 305.10 181.50 L 301.60 179.10 L 299.60 177.10 L 296.90 173.10 Z" fill="url(#路径_7_)" fill-rule="nonzero" group-id="1,3,5,7,8" id="路径_1_" node-id="16" stroke="none" target-height="54.300003" target-width="49.600006" target-x="295.1" target-y="134.7"/><path d="M 370.80 200.30 L 362.00 194.50 L 352.60 189.00 L 342.80 183.70 L 332.50 178.70 L 322.00 174.20 L 311.10 169.90 L 299.80 166.00 L 288.10 162.40 L 276.30 159.20 L 264.10 156.40 L 251.60 154.00 L 238.70 152.00 L 225.80 150.50 L 212.70 149.30 L 199.20 148.60 L 185.50 148.40 L 171.80 148.60 L 158.30 149.30 L 145.20 150.50 L 132.30 152.00 L 119.40 154.00 L 106.90 156.40 L 94.70 159.20 L 83.00 162.40 L 71.20 166.00 L 59.90 169.90 L 49.00 174.10 L 38.50 178.70 L 28.20 183.70 L 18.40 189.00 L 9.00 194.50 L 0.20 200.30 L 370.80 200.30 Z" fill="url(#路径_8_)" fill-rule="nonzero" group-id="1,3,5,7,8" id="路径_2_" node-id="20" stroke="none" target-height="51.90001" target-width="370.59998" target-x="0.2" target-y="148.4"/><path d="M 293.50 103.10 L 291.00 107.20 L 290.20 109.60 L 289.80 112.00 L 289.80 114.30 L 290.40 116.70 L 291.20 118.10 L 294.20 121.20 L 294.80 122.50 L 295.00 124.50 L 293.80 128.80 L 292.80 130.80 L 288.00 137.70 L 285.20 140.80 L 286.80 142.40 L 287.90 144.40 L 288.50 146.60 L 288.50 148.90 L 287.10 153.30 L 285.90 155.20 L 283.20 158.00 L 281.80 158.80 L 279.00 158.80 L 274.40 157.80 L 270.00 156.40 L 265.80 154.60 L 262.10 152.30 L 260.60 150.80 L 259.60 148.90 L 259.40 146.30 L 260.70 144.60 L 263.80 142.60 L 264.80 141.60 L 265.60 139.90 L 266.60 134.30 L 267.30 127.80 L 268.40 124.60 L 269.30 123.70 L 270.60 123.10 L 275.80 122.10 L 278.90 120.20 L 281.30 116.60 L 284.10 110.50 L 285.80 107.90 L 288.30 106.00 L 293.50 103.10 Z M 282.80 123.80 L 276.20 133.30 L 272.50 140.80 L 271.10 145.00 L 270.40 147.90 L 269.90 153.60 L 274.20 153.60 L 275.90 143.40 L 277.00 138.80 L 280.40 128.70 L 282.80 123.80 Z" fill="url(#形状结合_2_)" fill-rule="nonzero" group-id="1,3,5,7,8" id="形状结合" node-id="24" stroke="none" target-height="55.700005" target-width="35.600006" target-x="259.4" target-y="103.1"/></g></g></g></g></g><g node-id="68"><g node-id="70"><g node-id="72"><path d="M 129.60 60.00 L 245.00 60.00 L 247.40 60.20 L 249.60 60.80 L 253.40 63.10 L 256.20 66.40 L 257.20 68.40 L 257.80 70.60 L 258.00 73.00 L 258.00 153.40 L 257.80 155.80 L 257.20 158.00 L 254.90 161.80 L 251.60 164.60 L 249.60 165.60 L 247.40 166.20 L 245.00 166.40 L 129.60 166.40 L 127.20 166.20 L 125.00 165.60 L 121.20 163.30 L 118.40 160.00 L 117.40 158.00 L 116.80 155.80 L 116.60 153.40 L 116.60 73.00 L 117.50 68.40 L 119.70 64.60 L 123.10 61.80 L 125.10 60.80 L 129.60 60.00 Z" fill="#e6eeee" fill-rule="nonzero" group-id="2,4,6" id="path-1_2_" node-id="38" stroke="none" target-height="106.399994" target-width="141.4" target-x="116.6" target-y="60"/></g></g><path d="M 155.30 99.00 L 159.00 99.30 L 162.40 100.20 L 165.50 101.60 L 171.20 105.70 L 173.90 108.40 L 177.50 112.70 L 180.90 117.60 L 190.30 132.50 L 195.50 139.50 L 199.80 143.60 L 202.10 145.00 L 204.50 145.90 L 207.10 146.20 L 209.00 146.00 L 212.00 144.60 L 213.90 142.90 L 215.70 140.70 L 220.90 132.90 L 223.00 130.40 L 226.40 127.60 L 228.40 126.50 L 233.20 125.10 L 236.20 124.90 L 238.20 125.20 L 240.20 126.20 L 242.20 127.80 L 244.00 129.70 L 247.40 135.00 L 251.70 144.50 L 254.90 154.20 L 255.30 156.30 L 255.20 158.20 L 254.70 160.10 L 252.80 163.40 L 249.70 165.70 L 247.80 166.30 L 245.70 166.50 L 128.60 166.50 L 126.60 166.30 L 123.10 164.80 L 121.70 163.50 L 119.70 160.40 L 119.00 156.70 L 119.30 154.70 L 124.10 137.90 L 128.80 125.50 L 131.60 119.60 L 134.80 114.00 L 138.20 109.10 L 140.80 106.20 L 143.40 103.70 L 146.10 101.80 L 149.00 100.30 L 152.10 99.30 L 155.30 99.00 Z" fill="#d2dede" fill-rule="nonzero" group-id="2" id="路径_4_" node-id="39" stroke="none" target-height="67.5" target-width="136.3" target-x="119" target-y="99"/><path d="M 237.30 87.90 L 237.00 90.90 L 236.30 93.60 L 235.10 96.10 L 233.50 98.30 L 231.50 100.30 L 229.30 101.90 L 226.80 103.10 L 224.10 103.80 L 221.10 104.10 L 218.10 103.80 L 215.40 103.10 L 212.90 101.90 L 210.70 100.30 L 208.70 98.30 L 207.10 96.10 L 205.90 93.60 L 205.20 90.90 L 204.90 87.90 L 205.20 84.90 L 205.90 82.20 L 207.10 79.70 L 208.70 77.50 L 210.70 75.50 L 212.90 73.90 L 215.40 72.70 L 218.10 72.00 L 221.10 71.70 L 224.10 72.00 L 226.80 72.70 L 229.30 73.90 L 231.50 75.50 L 233.50 77.50 L 235.10 79.70 L 236.30 82.20 L 237.00 84.90 L 237.30 87.90 Z" fill="#d2dede" fill-rule="nonzero" group-id="2" id="椭圆形_2_" node-id="40" stroke="none" target-height="32.4" target-width="32.40001" target-x="204.9" target-y="71.7"/></g></svg>