<svg t="1714212075855" class="icon" viewBox="0 0 1024 1024" version="1.1" xmlns="http://www.w3.org/2000/svg" p-id="6063" width="128" height="128"><path d="M93.0816 99.6864m114.6368 0l155.8016 0q114.6368 0 114.6368 114.6368l0 155.8016q0 114.6368-114.6368 114.6368l-155.8016 0q-114.6368 0-114.6368-114.6368l0-155.8016q0-114.6368 114.6368-114.6368Z" fill="#CCDAFF" p-id="6064"></path><path d="M93.0816 538.3168m114.6368 0l155.8016 0q114.6368 0 114.6368 114.6368l0 155.8016q0 114.6368-114.6368 114.6368l-155.8016 0q-114.6368 0-114.6368-114.6368l0-155.8016q0-114.6368 114.6368-114.6368Z" fill="#CCDAFF" p-id="6065"></path><path d="M536.32 538.3168m114.6368 0l155.8016 0q114.6368 0 114.6368 114.6368l0 155.8016q0 114.6368-114.6368 114.6368l-155.8016 0q-114.6368 0-114.6368-114.6368l0-155.8016q0-114.6368 114.6368-114.6368Z" fill="#7A7AF9" p-id="6066"></path><path d="M536.32 99.6864m114.6368 0l155.8016 0q114.6368 0 114.6368 114.6368l0 155.8016q0 114.6368-114.6368 114.6368l-155.8016 0q-114.6368 0-114.6368-114.6368l0-155.8016q0-114.6368 114.6368-114.6368Z" fill="#CCDAFF" p-id="6067"></path></svg>