<svg t="1718355497910" class="icon" viewBox="0 0 1024 1024" version="1.1" xmlns="http://www.w3.org/2000/svg" p-id="3266" width="200" height="200"><path d="M657.888 661.536c-121.472 92.864-296.576 70.368-392.608-50.656-93.216-121.024-70.592-292.8 48.032-388.48 121.44-92.864 296.544-73.184 392.576 47.872 93.184 121.024 73.44 295.552-48 391.264z m0-351.872c-73.44-95.68-211.808-112.576-305.024-39.36-96.032 73.184-112.96 211.104-39.52 304 76.256 95.68 211.808 109.792 304.992 36.608 96-73.216 112.96-208.352 39.552-301.248z m0 368.736l16.928-14.048c14.112-11.264 33.888-8.448 45.184 5.632l48 61.952-67.776 50.656-48-59.104c-11.328-14.112-8.48-36.608 5.664-45.088z m152.48 160.48l-14.112 14.048c-14.112 11.264-36.704 8.448-45.184-5.632l-33.888-42.208 67.776-50.688 31.072 39.424c11.296 14.08 8.48 33.76-5.664 45.056zM629.632 374.4h-5.664c-8.48 2.816-14.112-2.816-19.776-11.264-11.296-30.976-31.072-45.056-50.816-53.504-16.96-5.632-36.704-5.632-48.032-5.632-2.816 0-5.664 0-8.48 2.816-8.48 0-19.744-5.632-22.592-14.048 0-11.264 5.664-19.68 14.112-22.496 0 0 5.664 0 14.112-2.816 14.112 0 39.52 0 64.96 8.448a120.96 120.96 0 0 1 70.592 73.184c5.696 11.264 0.032 19.68-8.416 25.312z m-16.96 39.456c0-11.296 8.48-19.744 16.928-22.56 11.296 0 22.592 8.48 22.592 19.712 0 8.48-5.664 19.712-16.928 19.712-11.296 0-19.776-5.632-22.592-16.864" fill="#5D5D5D" p-id="3267"></path></svg>