<svg t="1715668791774" class="icon" viewBox="0 0 3912 1024" version="1.1" xmlns="http://www.w3.org/2000/svg" p-id="14952" width="128" height="128"><path d="M383.61791 733.61194l53.110448-379.797015H204.035821l-17.19403 121.886568h110.041791L234.602985 917.779104 435.58209 844.41791l19.486567-136.788059zM459.271642 291.534328L424.119403 92.465672H299.176119l35.534329 199.068656zM975.092537 308.728358l28.274627-200.979104H626.626866l-10.316418 74.125373c-7.641791 54.256716-19.104478 101.635821-34.00597 141.755224-15.665672 40.883582-40.119403 77.946269-71.832836 108.513433h124.561194c23.307463-29.420896 41.647761-61.898507 55.020895-96.668657 13.755224-37.444776 23.689552-76.41791 30.185075-116.155224h157.802985l-27.892537 199.068657h187.22388l15.283582-110.041791h-77.564179zM938.79403 602.937313c32.095522-46.232836 56.167164-97.432836 71.450746-151.689552H534.925373c14.519403 114.244776 51.2 207.474627 110.423881 278.925373-58.841791 33.241791-120.740299 60.370149-184.931344 81.767165l-16.42985 117.301492c98.961194-26.364179 193.337313-67.629851 279.689552-123.032836 58.459701 44.704478 136.40597 85.58806 233.838806 123.032836l16.429851-117.301492c-37.062687-15.283582-66.101493-27.892537-87.880597-38.208956-23.307463-11.080597-45.850746-24.071642-67.629851-38.208955 45.850746-38.973134 86.352239-83.295522 120.358209-132.585075z m-199.450746 63.808956c-30.949254-34.00597-54.638806-74.125373-69.540299-117.301493h181.492537c-30.949254 44.322388-68.776119 84.059701-111.952238 117.301493zM1909.301493 289.623881l26.364179-188.752239h-733.611941l-26.364179 188.752239h307.2l-4.202985 29.420895h-330.889552l-12.608955 89.791045h330.889552l-3.820896 26.746269h-268.608955l-53.110448 378.650746h-84.441791l-13.755223 98.961194h825.313432l13.755224-98.961194h-84.441791l53.110448-378.650746H1581.850746l3.820896-26.746269h330.889552l12.608955-89.791045h-331.271642l4.202986-29.420895h307.2z m-195.247762-116.537314h96.286568l-6.495523 45.850746h-96.286567l6.495522-45.850746z m-316.370149 45.850746h-96.286567l6.495522-45.850746h96.286567l-6.495522 45.850746z m281.217911 600.644777H1257.074627l3.820895-27.510448h421.826866l-3.820895 27.510448z m12.991044-91.701493H1270.065672l3.820895-27.510448h421.826866l-3.820896 27.510448z m12.991045-91.701493H1283.056716l3.820896-27.510447h421.826866l-3.820896 27.510447z m16.429851-118.447761l-3.820896 27.510448H1295.665672l3.820895-27.510448h421.826866z m-125.707463-298.79403H1509.253731l6.495523-45.850746h86.352239l-6.495523 45.850746zM2447.283582 743.546269h295.355224l14.901493-108.131344h-294.973135l5.731343-41.265671h-121.122388l-5.731343 41.265671h-295.355224l-15.283582 108.131344h295.355224l-8.023881 56.931343h-353.050746l-15.283582 110.041791h826.077612l15.283582-110.041791h-351.904478zM2135.498507 461.946269c12.226866-43.176119 21.779104-86.734328 28.656717-131.056717h256l32.095522-227.343283H2090.029851l-30.949254 219.319403c-6.113433 45.850746-16.047761 90.555224-29.420896 134.877612-13.755224 43.176119-30.949254 85.20597-51.2 125.707462H2090.029851c17.958209-39.355224 33.241791-79.856716 45.468656-121.504477z m52.728359-264.78806h140.226865l-6.495522 45.086567H2181.731343l6.495523-45.086567z" p-id="14953"></path><path d="M2384.620896 583.068657l31.713432-224.668657h-241.098507l-31.713433 224.668657h241.098508z m-129.528359-142.137314h57.695523l-8.40597 59.60597H2246.686567l8.40597-59.60597zM2847.331343 402.340299l14.137314-100.107463h-78.710448L2812.179104 221.61194h42.029851l14.519403-101.635821h-133.731343l5.349254-37.444776h-117.301493l-5.349254 37.444776h-133.731343L2469.062687 221.61194h42.02985l6.877612 80.620896h-78.710448l-14.137313 100.107463h152.071642l-6.495523 46.614925h-142.901492l-14.519403 103.546269H2556.179104l-5.731343 40.501492h117.301493l5.731343-40.501492h142.901493l14.519403-103.546269h-142.901493l6.495522-46.614925h152.835821z m-163.916418-99.725374H2617.313433L2610.435821 221.61194H2712.835821l-29.420896 81.002985zM2858.029851 912.429851l319.808955-30.567164 16.81194-118.065672-319.808955 30.185075zM3087.665672 583.068657l205.564179-326.304478h-116.537314l-73.361194 117.301493-30.185074-19.486568L3240.119403 92.465672h-121.122388l-208.238806 328.214925 106.602985 64.191045-136.78806 216.644776h318.280597l16.429851-118.447761zM3718.877612 209.767164c9.552239-1.146269 17.19403-2.292537 23.307463-2.674627l25.982089-2.674627 16.429851-117.301492c-153.21791 16.429851-306.81791 24.453731-460.8 23.689552l-113.480597 806.973134h221.99403l16.429851-117.301492h-104.692538l38.591045-274.340299h145.958209c-6.113433 66.101493-6.495522 132.585075-1.146269 198.686568 5.349254 65.337313 16.429851 129.910448 33.241791 192.955223h131.056717c-23.689552-61.516418-38.973134-125.707463-45.850747-191.044776-6.495522-66.483582-7.259701-133.731343-1.528358-200.214925h93.611941l16.42985-117.683582h-95.522388l27.510448-196.39403c12.226866-0.38209 23.307463-1.528358 32.477612-2.674627z m-175.761194 199.068657h-143.665672l25.6-181.492537L3473.19403 225.432836c44.322388-1.146269 76.41791-2.674627 96.668657-3.820896l-26.746269 187.223881z" p-id="14954"></path></svg>