<svg t="1715668637038" class="icon" viewBox="0 0 1024 1024" version="1.1" xmlns="http://www.w3.org/2000/svg" p-id="14784" width="128" height="128"><path d="M536.944 212.64l-316.4 54.88h-4.128a21.616 21.616 0 0 0-21.6 21.6v382.784a21.632 21.632 0 0 0 18.64 21.392l316.4-54.88h4.16a21.616 21.616 0 0 0 21.6-21.6V234.032a21.632 21.632 0 0 0-18.672-21.392m-2.928-48.208a69.6 69.6 0 0 1 69.6 69.6v382.784a69.6 69.6 0 0 1-69.6 69.6l-317.6 55.072a69.6 69.6 0 0 1-69.6-69.584V289.12a69.6 69.6 0 0 1 69.6-69.6z" p-id="14785"></path><path d="M426.688 873.92h-1.984a83.408 83.408 0 0 1-84.416-82.112v-320h48v320a35.2 35.2 0 0 0 34.656 34.128l275.44-46h1.984a35.392 35.392 0 0 0 36.416-34.176v-79.776h48v79.728a83.344 83.344 0 0 1-82.272 82.144z" p-id="14786"></path><path d="M433.888 866.672a98.96 98.96 0 0 1-64.912-23.472 79.664 79.664 0 0 1-28.688-60.72v-331.04a79.664 79.664 0 0 1 28.688-60.72 98.752 98.752 0 0 1 63.008-23.456l157.232-23.584 7.072 47.472-158.848 23.824a24 24 0 0 1-3.568 0.272 51.008 51.008 0 0 0-33.52 11.776 32.416 32.416 0 0 0-12.064 24.416v331.04a32.416 32.416 0 0 0 12.08 24.416 50.672 50.672 0 0 0 32 11.76l282.816-40.8 6.848 47.504-284.72 40.992a24 24 0 0 1-3.424 0.32z" p-id="14787" data-spm-anchor-id="a313x.search_index.0.i14.65513a81aE4wMY" class="selected"></path><path d="M745.984 242.288s-4.16 79.024-33.28 127.584a169.984 169.984 0 0 1-83.2 66.528 109.536 109.536 0 0 1 77.008 41.6c29.12 39.504 39.472 116.464 39.472 116.464s5.312-79.744 33.712-130.336a182.032 182.032 0 0 1 80-72 66 66 0 0 1-72.128-22.192c-28.464-37.536-41.584-127.648-41.584-127.648z" p-id="14788"></path><path d="M655.584 367.408a147.52 147.52 0 0 0-14.848-56.928 75.952 75.952 0 0 0-37.152-29.696 48.832 48.832 0 0 0 34.368-18.56 140.032 140.032 0 0 0 17.6-51.968 165.696 165.696 0 0 0 15.056 58.192 81.488 81.488 0 0 0 35.632 32.144 29.36 29.36 0 0 0-32.128 9.904 164.448 164.448 0 0 0-18.528 56.912z" p-id="14789"></path></svg>